<svg xmlns="http://www.w3.org/2000/svg" xmlns:xlink="http://www.w3.org/1999/xlink" xmlns:inkscape="http://www.inkscape.org/namespaces/inkscape" version="1.1" width="109" height="67" viewBox="0 0 109 67">
<defs>
<path id="font_1_111" d="M.7299957 .6516113V.6826172C.69898989 .680603 .6589966 .6796112 .6329956 .6796112L.5189972 .6826172V.6516113C.57099917 .6506195 .59199526 .6246033 .59199526 .6016083 .59199526 .5936127 .58898928 .5876007 .58699038 .581604L.4039917 .09954834 .21299744 .60461428C.20698548 .61860659 .20698548 .62260439 .20698548 .62260439 .20698548 .6516113 .2639923 .6516113 .2889862 .6516113V.6826172C.25299073 .6796112 .18399048 .6796112 .1459961 .6796112L.018997193 .6826172V.6516113C.083999637 .6516113 .102996829 .6516113 .116989139 .6136017L.34899903-.00047302247C.35598756-.019470215 .36099244-.022460938 .37399293-.022460938 .3909912-.022460938 .3929901-.017471314 .397995-.0034637452L.62098696 .58461C.6349945 .62161257 .6619873 .6506195 .7299957 .6516113Z"/>
<path id="font_1_113" d="M1.0089874 .6516113V.6826172C.97898867 .680603 .94799807 .6796112 .91799929 .6796112L.798996 .6826172V.6516113C.8659973 .65060427 .8860016 .6174164 .8860016 .5983734 .8860016 .59236147 .8829956 .58436587 .8809967 .57836917L.73098757 .116363529 .57099917 .606369C.56999209 .6103668 .56799319 .6164093 .56799319 .62142947 .56799319 .6516113 .6259918 .6516113 .6519928 .6516113V.6826172C.6159973 .6796112 .5479889 .6796112 .5099945 .6796112L.3880005 .6826172V.6516113C.44499208 .6516113 .46598817 .6516113 .47799684 .61595156L.5 .5459595 .36099244 .11695862 .19999695 .60894778C.19898987 .61195376 .19799805 .618927 .19799805 .62190249 .19799805 .6516113 .2559967 .6516113 .28199769 .6516113V.6826172C.24598694 .6796112 .17799378 .6796112 .13999939 .6796112L.017990113 .6826172V.6516113C.09298706 .6513672 .09700012 .6463623 .10899353 .609375L.30899049-.003479004C.31199647-.012466431 .31498719-.022460938 .32798768-.022460938 .34199525-.022460938 .34399415-.015472412 .34799195-.0024719239L.5130005 .50538638 .67900088-.003479004C.6819916-.012466431 .68499758-.022460938 .69799807-.022460938 .71199038-.022460938 .71398928-.015472412 .71798709-.0024719239L.9089966 .58496096C.9269867 .6417084 .9700012 .6516113 1.0089874 .6516113Z"/>
<path id="font_1_115" d="M.7259979 0V.0309906H.70700076C.6549988 .0309906 .6339874 .035995485 .61299136 .066970828L.4019928 .3857727 .5389862 .5866394C.5609894 .6186218 .59498599 .65060427 .6839905 .6516113V.6826172L.57299807 .6796112C.5329895 .6796112 .4850006 .6796112 .44499208 .6826172V.6516113C.4850006 .65060427 .5069885 .62861636 .5069885 .6056366 .5069885 .5956421 .5049896 .5936432 .49798585 .5826416L.38398744 .41375733 .25498963 .6066284C.25299073 .6096344 .24798584 .61763 .24798584 .6216278 .24798584 .6336212 .269989 .65060427 .31298829 .6516113V.6826172C.27799989 .6796112 .20498657 .6796112 .16699219 .6796112L.036987306 .6826172V.6516113H.055999757C.11099243 .6516113 .12998963 .64460757 .14898682 .6166229L.33299256 .33880616 .16899109 .096954349C.15499878 .07696533 .125 .0309906 .023986817 .0309906V0L.1349945 .0029907227C.17199707 .0029907227 .22698975 .0029907227 .2630005 0V.0309906C.21699524 .03199768 .19999695 .05897522 .19999695 .07696533 .19999695 .08595276 .20298767 .08995056 .20999146 .10095215L.35198976 .31082154 .5099945 .07196045C.5119934 .06796265 .5149994 .063964847 .5149994 .06097412 .5149994 .048980714 .49299623 .03199768 .44999696 .0309906V0C.4850006 .0029907227 .55799868 .0029907227 .59599307 .0029907227L.7259979 0Z"/>
<path id="font_1_117" d="M.73799136 .6516113V.6826172C.70700076 .680603 .6669922 .6796112 .6399994 .6796112L.5249939 .6826172V.6516113C.56599429 .6516113 .58200076 .63261416 .58200076 .6126251 .58200076 .6016388 .57598879 .5886383 .57199099 .5826416L.40699769 .31481935 .22599793 .6096344C.21899414 .6196289 .21899414 .6216278 .21899414 .62661746 .21899414 .6476135 .24398804 .6516113 .2889862 .6516113V.6826172C.25299073 .6796112 .17999268 .6796112 .14099121 .6796112L.010986328 .6826172V.6516113H.0289917C.09700012 .6516113 .10499573 .64060977 .12098694 .614624L.33099366 .2728424V.07795715C.33099366 .041992189 .32899476 .0309906 .2519989 .0309906H.22799683V0C.2639923 .0029907227 .33499146 .0029907227 .37399293 .0029907227 .41299439 .0029907227 .48399354 .0029907227 .519989 0V.0309906H.49699403C.41999818 .0309906 .4169922 .040985109 .4169922 .079956058V.2728424L.6100006 .5866394C.6469879 .6476135 .70599368 .6516113 .73799136 .6516113Z"/>
<path id="font_1_119" d="M.55999758 .2668457H.5349884C.5269928 .12792969 .5079956 .033996583 .32299806 .033996583H.15899658L.5469971 .6476135C.55400088 .6586151 .55400088 .65960696 .55400088 .6666107 .55400088 .6826172 .5479889 .6826172 .5279999 .6826172H.07998657L.068984989 .45773316H.09399414C.100997928 .57066348 .1309967 .6516113 .29499818 .6516113H.45199586L.06298828 .036987306C.055999757 .025985718 .055999757 .024993897 .055999757 .016998291 .055999757 0 .06098938 0 .08198547 0H.54299929L.55999758 .2668457Z"/>
</defs>
<path transform="matrix(1.00005,0,0,-1.00003,12.113655,12.858905)" d="M9.8178 0C9.8178 5.42229 5.42229 9.8178 0 9.8178-5.42229 9.8178-9.8178 5.42229-9.8178 0-9.8178-5.42229-5.42229-9.8178 0-9.8178 5.42229-9.8178 9.8178-5.42229 9.8178 0ZM0 0" fill="#f2f2f2"/>
<path transform="matrix(1.00005,0,0,-1.00003,12.113655,12.858905)" stroke-width=".79701" stroke-linecap="butt" stroke-miterlimit="10" stroke-linejoin="miter" fill="none" stroke="#000000" d="M9.8178 0C9.8178 5.42229 5.42229 9.8178 0 9.8178-5.42229 9.8178-9.8178 5.42229-9.8178 0-9.8178-5.42229-5.42229-9.8178 0-9.8178 5.42229-9.8178 9.8178-5.42229 9.8178 0ZM0 0"/>
<use data-text="V" xlink:href="#font_1_111" transform="matrix(9.963098,0,0,-9.962899,8.377472,16.152005)"/>
<path transform="matrix(1.00005,0,0,-1.00003,12.113655,12.858905)" d="M53.37953 0C53.37953 5.9975 48.51772 10.85931 42.52022 10.85931 36.52272 10.85931 31.66089 5.9975 31.66089 0 31.66089-5.9975 36.52272-10.85931 42.52022-10.85931 48.51772-10.85931 53.37953-5.9975 53.37953 0ZM42.52022 0" fill="#f2f2f2"/>
<path transform="matrix(1.00005,0,0,-1.00003,12.113655,12.858905)" stroke-width=".79701" stroke-linecap="butt" stroke-miterlimit="10" stroke-linejoin="miter" fill="none" stroke="#000000" d="M53.37953 0C53.37953 5.9975 48.51772 10.85931 42.52022 10.85931 36.52272 10.85931 31.66089 5.9975 31.66089 0 31.66089-5.9975 36.52272-10.85931 42.52022-10.85931 48.51772-10.85931 53.37953-5.9975 53.37953 0ZM42.52022 0"/>
<use data-text="W" xlink:href="#font_1_113" transform="matrix(9.963098,0,0,-9.962899,49.514524,16.152005)"/>
<path transform="matrix(1.00005,0,0,-1.00003,12.113655,12.858905)" d="M9.71223-42.52022C9.71223-37.15622 5.36398-32.80797 0-32.80797-5.36398-32.80797-9.71223-37.15622-9.71223-42.52022-9.71223-47.8842-5.36398-52.23245 0-52.23245 5.36398-52.23245 9.71223-47.8842 9.71223-42.52022ZM0-42.52022" fill="#f2f2f2"/>
<path transform="matrix(1.00005,0,0,-1.00003,12.113655,12.858905)" stroke-width=".79701" stroke-linecap="butt" stroke-miterlimit="10" stroke-linejoin="miter" fill="none" stroke="#000000" d="M9.71223-42.52022C9.71223-37.15622 5.36398-32.80797 0-32.80797-5.36398-32.80797-9.71223-37.15622-9.71223-42.52022-9.71223-47.8842-5.36398-52.23245 0-52.23245 5.36398-52.23245 9.71223-47.8842 9.71223-42.52022ZM0-42.52022"/>
<use data-text="X" xlink:href="#font_1_115" transform="matrix(9.963098,0,0,-9.962899,8.377472,58.782289)"/>
<path transform="matrix(1.00005,0,0,-1.00003,12.113655,12.858905)" d="M94.75267 0C94.75267 5.36398 90.40442 9.71223 85.04044 9.71223 79.67645 9.71223 75.3282 5.36398 75.3282 0 75.3282-5.36398 79.67645-9.71223 85.04044-9.71223 90.40442-9.71223 94.75267-5.36398 94.75267 0ZM85.04044 0" fill="#f2f2f2"/>
<path transform="matrix(1.00005,0,0,-1.00003,12.113655,12.858905)" stroke-width=".79701" stroke-linecap="butt" stroke-miterlimit="10" stroke-linejoin="miter" fill="none" stroke="#000000" d="M94.75267 0C94.75267 5.36398 90.40442 9.71223 85.04044 9.71223 79.67645 9.71223 75.3282 5.36398 75.3282 0 75.3282-5.36398 79.67645-9.71223 85.04044-9.71223 90.40442-9.71223 94.75267-5.36398 94.75267 0ZM85.04044 0"/>
<use data-text="Y" xlink:href="#font_1_117" transform="matrix(9.963098,0,0,-9.962899,93.421718,16.261008)"/>
<path transform="matrix(1.00005,0,0,-1.00003,12.113655,12.858905)" d="M94.29321-42.52022C94.29321-37.40999 90.15067-33.26744 85.04044-33.26744 79.93022-33.26744 75.78766-37.40999 75.78766-42.52022 75.78766-47.63043 79.93022-51.773 85.04044-51.773 90.15067-51.773 94.29321-47.63043 94.29321-42.52022ZM85.04044-42.52022" fill="#f2f2f2"/>
<path transform="matrix(1.00005,0,0,-1.00003,12.113655,12.858905)" stroke-width=".79701" stroke-linecap="butt" stroke-miterlimit="10" stroke-linejoin="miter" fill="none" stroke="#000000" d="M94.29321-42.52022C94.29321-37.40999 90.15067-33.26744 85.04044-33.26744 79.93022-33.26744 75.78766-37.40999 75.78766-42.52022 75.78766-47.63043 79.93022-51.773 85.04044-51.773 90.15067-51.773 94.29321-47.63043 94.29321-42.52022ZM85.04044-42.52022"/>
<use data-text="Z" xlink:href="#font_1_119" transform="matrix(9.963098,0,0,-9.962899,94.11475,58.782289)"/>
<path transform="matrix(1.00005,0,0,-1.00003,12.113655,12.858905)" stroke-width=".79701" stroke-linecap="butt" stroke-miterlimit="10" stroke-linejoin="miter" fill="none" stroke="#000000" d="M10.2163 0H28.8315"/>
<path transform="matrix(1.00005,0,0,-1.00003,40.946596,12.858905)" d="M1.0361 0C-.25902 .25902-1.55415 .77707-3.1083 1.68365-1.55415 .51805-1.55415-.51805-3.1083-1.68365-1.55415-.77707-.25902-.25902 1.0361 0Z"/>
<path transform="matrix(1.00005,0,0,-1.00003,40.946596,12.858905)" stroke-width=".79701" stroke-linecap="butt" stroke-linejoin="round" fill="none" stroke="#000000" d="M1.0361 0C-.25902 .25902-1.55415 .77707-3.1083 1.68365-1.55415 .51805-1.55415-.51805-3.1083-1.68365-1.55415-.77707-.25902-.25902 1.0361 0Z"/>
<path transform="matrix(1.00005,0,0,-1.00003,12.113655,12.858905)" stroke-width=".79701" stroke-linecap="butt" stroke-miterlimit="10" stroke-linejoin="miter" fill="none" stroke="#000000" d="M31.26239 0H12.64719"/>
<path transform="matrix(-1.00005,-0,0,1.00003,24.761477,12.858905)" d="M1.0361 0C-.25902 .25902-1.55415 .77707-3.1083 1.68365-1.55415 .51805-1.55415-.51805-3.1083-1.68365-1.55415-.77707-.25902-.25902 1.0361 0Z"/>
<path transform="matrix(-1.00005,-0,0,1.00003,24.761477,12.858905)" stroke-width=".79701" stroke-linecap="butt" stroke-linejoin="round" fill="none" stroke="#000000" d="M1.0361 0C-.25902 .25902-1.55415 .77707-3.1083 1.68365-1.55415 .51805-1.55415-.51805-3.1083-1.68365-1.55415-.77707-.25902-.25902 1.0361 0Z"/>
<path transform="matrix(1.00005,0,0,-1.00003,12.113655,12.858905)" stroke-width=".79701" stroke-linecap="butt" stroke-miterlimit="10" stroke-linejoin="miter" fill="none" stroke="#000000" d="M34.55972-7.96048 8.86826-33.65196"/>
<path transform="matrix(-.7071353,.7071212,.7071353,.7071212,20.982369,46.511869)" d="M1.0361 0C-.25902 .25902-1.55415 .77707-3.1083 1.68365-1.55415 .51805-1.55415-.51805-3.1083-1.68365-1.55415-.77707-.25902-.25902 1.0361 0Z"/>
<path transform="matrix(-.7071353,.7071212,.7071353,.7071212,20.982369,46.511869)" stroke-width=".79701" stroke-linecap="butt" stroke-linejoin="round" fill="none" stroke="#000000" d="M1.0361 0C-.25902 .25902-1.55415 .77707-3.1083 1.68365-1.55415 .51805-1.55415-.51805-3.1083-1.68365-1.55415-.77707-.25902-.25902 1.0361 0Z"/>
<path transform="matrix(1.00005,0,0,-1.00003,12.113655,12.858905)" stroke-width=".79701" stroke-linecap="butt" stroke-miterlimit="10" stroke-linejoin="miter" fill="none" stroke="#000000" d="M53.77805 0H72.49881"/>
<path transform="matrix(1.00005,0,0,-1.00003,84.61609,12.858905)" d="M1.0361 0C-.25902 .25902-1.55415 .77707-3.1083 1.68365-1.55415 .51805-1.55415-.51805-3.1083-1.68365-1.55415-.77707-.25902-.25902 1.0361 0Z"/>
<path transform="matrix(1.00005,0,0,-1.00003,84.61609,12.858905)" stroke-width=".79701" stroke-linecap="butt" stroke-linejoin="round" fill="none" stroke="#000000" d="M1.0361 0C-.25902 .25902-1.55415 .77707-3.1083 1.68365-1.55415 .51805-1.55415-.51805-3.1083-1.68365-1.55415-.77707-.25902-.25902 1.0361 0Z"/>
<path transform="matrix(1.00005,0,0,-1.00003,12.113655,12.858905)" stroke-width=".79701" stroke-linecap="butt" stroke-miterlimit="10" stroke-linejoin="miter" fill="none" stroke="#000000" d="M0-32.40947V-12.64719"/>
<path transform="matrix(0,-1.00003,-1.00005,-0,12.113655,25.506474)" d="M1.0361 0C-.25902 .25902-1.55415 .77707-3.1083 1.68365-1.55415 .51805-1.55415-.51805-3.1083-1.68365-1.55415-.77707-.25902-.25902 1.0361 0Z"/>
<path transform="matrix(0,-1.00003,-1.00005,-0,12.113655,25.506474)" stroke-width=".79701" stroke-linecap="butt" stroke-linejoin="round" fill="none" stroke="#000000" d="M1.0361 0C-.25902 .25902-1.55415 .77707-3.1083 1.68365-1.55415 .51805-1.55415-.51805-3.1083-1.68365-1.55415-.77707-.25902-.25902 1.0361 0Z"/>
<path transform="matrix(1.00005,0,0,-1.00003,12.113655,12.858905)" stroke-width=".79701" stroke-linecap="butt" stroke-miterlimit="10" stroke-linejoin="miter" fill="none" stroke="#000000" d="M7.14937-35.37085 32.84084-9.67937"/>
<path transform="matrix(.7071353,-.7071212,-.7071353,-.7071212,44.956117,22.538577)" d="M1.0361 0C-.25902 .25902-1.55415 .77707-3.1083 1.68365-1.55415 .51805-1.55415-.51805-3.1083-1.68365-1.55415-.77707-.25902-.25902 1.0361 0Z"/>
<path transform="matrix(.7071353,-.7071212,-.7071353,-.7071212,44.956117,22.538577)" stroke-width=".79701" stroke-linecap="butt" stroke-linejoin="round" fill="none" stroke="#000000" d="M1.0361 0C-.25902 .25902-1.55415 .77707-3.1083 1.68365-1.55415 .51805-1.55415-.51805-3.1083-1.68365-1.55415-.77707-.25902-.25902 1.0361 0Z"/>
<path transform="matrix(1.00005,0,0,-1.00003,12.113655,12.858905)" stroke-width=".79701" stroke-linecap="butt" stroke-miterlimit="10" stroke-linejoin="miter" fill="none" stroke="#000000" d="M85.04044-10.11073V-30.43805"/>
<path transform="matrix(0,1.00003,1.00005,0,97.15835,43.297868)" d="M1.0361 0C-.25902 .25902-1.55415 .77707-3.1083 1.68365-1.55415 .51805-1.55415-.51805-3.1083-1.68365-1.55415-.77707-.25902-.25902 1.0361 0Z"/>
<path transform="matrix(0,1.00003,1.00005,0,97.15835,43.297868)" stroke-width=".79701" stroke-linecap="butt" stroke-linejoin="round" fill="none" stroke="#000000" d="M1.0361 0C-.25902 .25902-1.55415 .77707-3.1083 1.68365-1.55415 .51805-1.55415-.51805-3.1083-1.68365-1.55415-.77707-.25902-.25902 1.0361 0Z"/>
<path transform="matrix(1.00005,0,0,-1.00003,12.113655,12.858905)" stroke-width=".79701" stroke-linecap="butt" stroke-miterlimit="10" stroke-linejoin="miter" fill="none" stroke="#000000" d="M85.04044-10.11073V-30.43805"/>
<path transform="matrix(0,1.00003,1.00005,0,97.15835,43.297868)" d="M1.0361 0C-.25902 .25902-1.55415 .77707-3.1083 1.68365-1.55415 .51805-1.55415-.51805-3.1083-1.68365-1.55415-.77707-.25902-.25902 1.0361 0Z"/>
<path transform="matrix(0,1.00003,1.00005,0,97.15835,43.297868)" stroke-width=".79701" stroke-linecap="butt" stroke-linejoin="round" fill="none" stroke="#000000" d="M1.0361 0C-.25902 .25902-1.55415 .77707-3.1083 1.68365-1.55415 .51805-1.55415-.51805-3.1083-1.68365-1.55415-.77707-.25902-.25902 1.0361 0Z"/>
</svg>
