<svg xmlns="http://www.w3.org/2000/svg" xmlns:xlink="http://www.w3.org/1999/xlink" xmlns:inkscape="http://www.inkscape.org/namespaces/inkscape" version="1.1" width="352" height="126" viewBox="0 0 352 126">
<defs>
<path id="font_1_1" d="M.9169922 .5666046C.94200137 .61061099 .96598818 .64660647 1.0289917 .6516113 1.0379944 .65260317 1.0479889 .65260317 1.0479889 .6716156 1.0479889 .6756134 1.0439911 .6826172 1.0359955 .6826172 1.0119934 .6826172 .98399356 .6796112 .95899966 .6796112 .9249878 .6796112 .8880005 .6826172 .8549957 .6826172 .848999 .6826172 .83599856 .6826172 .83599856 .66360476 .83599856 .65260317 .8450012 .6516113 .8509979 .6516113 .875 .65060427 .9099884 .64260867 .9099884 .61260989 .9099884 .6016083 .9049988 .5935974 .8969879 .5796051L.6269989 .108551029 .58999636 .604599C.58898928 .6246033 .58699038 .65060427 .6599884 .6516113 .6769867 .6516113 .68699648 .6516113 .68699648 .6716156 .68699648 .6816101 .6759949 .6826172 .6719971 .6826172 .6319885 .6826172 .58999636 .6796112 .5499878 .6796112 .5269928 .6796112 .46798707 .6826172 .44499208 .6826172 .43899537 .6826172 .42599488 .6826172 .42599488 .6626129 .42599488 .6516113 .43598939 .6516113 .44999696 .6516113 .49398805 .6516113 .5009918 .6456146 .5029907 .6266022L.5089874 .54959109 .2559967 .108551029 .21798706 .6156006C.21798706 .62760928 .21798706 .65060427 .2939911 .6516113 .3039856 .6516113 .31498719 .6516113 .31498719 .6716156 .31498719 .6826172 .30299378 .6826172 .30099488 .6826172 .26098634 .6826172 .21899414 .6796112 .17799378 .6796112 .14299011 .6796112 .10699463 .6826172 .07299805 .6826172 .067993167 .6826172 .054992677 .6826172 .054992677 .66360476 .054992677 .6516113 .06399536 .6516113 .07998657 .6516113 .12998963 .6516113 .1309967 .64260867 .1329956 .61460879L.17799378 .0035247803C.1789856-.014465332 .17999268-.022460938 .19400025-.022460938 .20599365-.022460938 .20899964-.016464234 .21798706-.0014648438L.5119934 .5085907 .548996 .0035247803C.5509949-.017471314 .5529938-.022460938 .5649872-.022460938 .5779877-.022460938 .58399966-.012466431 .58898928-.0034637452L.9169922 .5666046Z"/>
<path id="font_1_5" d="M.5369873 .5947571C.522995 .5818329 .48999024 .55400088 .48999024 .5361023 .48999024 .5261078 .5 .516098 .5099945 .516098 .5189972 .516098 .5239868 .5231018 .5289917 .5290985 .54100039 .5440674 .56399539 .5718994 .60798647 .59376528 .61499026 .59776309 .625 .6027527 .625 .61476138 .625 .62475588 .6179962 .62976077 .61099246 .6347656 .58898928 .6497803 .5779877 .66781619 .56999209 .69184878 .56799319 .7008667 .56399539 .7138672 .5499878 .7138672 .5359955 .7138672 .5299988 .7008667 .5299988 .69285586 .5299988 .68785098 .5379944 .65579226 .55400088 .6347656H.21699524C.19999695 .6347656 .18199158 .6347656 .18199158 .61476138 .18199158 .5947571 .19999695 .5947571 .21699524 .5947571H.5369873Z"/>
<path id="font_1_2" d="M.46798707 .37236024C.46798707 .42637635 .44198609 .4423828 .42399598 .4423828 .39898683 .4423828 .375 .41636659 .375 .3943634 .375 .38136292 .37998963 .3753662 .3909912 .36434938 .4119873 .3443451 .4249878 .31834413 .4249878 .28233338 .4249878 .24032593 .3639984 .011245728 .24699402 .011245728 .19599915 .011245728 .17298889 .04626465 .17298889 .09828186 .17298889 .15429688 .19999695 .22731018 .23098755 .31033326 .23799134 .3273468 .24299622 .34135438 .24299622 .36035157 .24299622 .405365 .21099854 .4423828 .16099549 .4423828 .066986087 .4423828 .0289917 .29733277 .0289917 .28833009 .0289917 .27833558 .038986207 .27833558 .040985109 .27833558 .050994874 .27833558 .051986696 .28033448 .056991579 .29634095 .085998538 .39736939 .1289978 .42037965 .1579895 .42037965 .1659851 .42037965 .18299866 .42037965 .18299866 .3883667 .18299866 .36335755 .17298889 .3363495 .1659851 .31834413 .12199402 .20230103 .10899353 .15629578 .10899353 .11328125 .10899353 .0052490236 .19699097-.0107421879 .24299622-.0107421879 .41099549-.0107421879 .46798707 .32034303 .46798707 .37236024Z"/>
<path id="font_2_1" d="M.33499146 .63612368C.33499146 .6630554 .33299256 .6640625 .30499269 .6640625 .24099732 .6014404 .1499939 .6004486 .10899353 .6004486V.5644531C.1329956 .5644531 .19898987 .5644531 .2539978 .592453V.08203125C.2539978 .04899597 .2539978 .035995485 .1539917 .035995485H.115997318V0C.13398743 .0009918213 .25698854 .0039978029 .2939911 .0039978029 .32499696 .0039978029 .45098878 .0009918213 .47299195 0V.035995485H.43499757C.33499146 .035995485 .33499146 .04899597 .33499146 .08203125V.63612368Z"/>
<path id="font_2_2" d="M.5049896 .18203736H.47099305C.46798707 .16001892 .45799256 .100997928 .44499208 .09098816 .43699647 .084991458 .3600006 .084991458 .34599305 .084991458H.1619873C.2669983 .17803955 .3019867 .20603943 .3619995 .25306703 .43598939 .312088 .5049896 .374115 .5049896 .46914674 .5049896 .5900879 .39898683 .6640625 .2709961 .6640625 .14698792 .6640625 .06298828 .57710269 .06298828 .4851532 .06298828 .43414308 .10598755 .42915345 .115997318 .42915345 .13999939 .42915345 .16899109 .44615174 .16899109 .48214723 .16899109 .5001526 .1619873 .53515627 .10998535 .53515627 .14099121 .6060791 .20899964 .62805178 .2559967 .62805178 .35598756 .62805178 .4079895 .5501404 .4079895 .46914674 .4079895 .38212586 .34599305 .3130951 .31399537 .27708436L.07299805 .038986207C.06298828 .02999878 .06298828 .027999878 .06298828 0H.47499085L.5049896 .18203736Z"/>
<path id="font_1_3" d="M.48599244 .38136292C.48999024 .39537049 .48999024 .39736939 .48999024 .40437318 .48999024 .42237855 .47599793 .43138124 .46099855 .43138124 .45098878 .43138124 .43499757 .42536927 .42599488 .41036988 .42399598 .405365 .41600038 .37435914 .4119873 .35635377 .40499879 .33035279 .397995 .30334474 .3919983 .27633668L.34700013 .09628296C.34298707 .08126831 .2999878 .011245728 .23399353 .011245728 .18299866 .011245728 .17199707 .055267335 .17199707 .0922699 .17199707 .1382904 .18899536 .20030213 .22299195 .28833009 .23899842 .3293457 .24299622 .3403473 .24299622 .36035157 .24299622 .405365 .21099854 .4423828 .16099549 .4423828 .06599426 .4423828 .0289917 .29733277 .0289917 .28833009 .0289917 .27833558 .038986207 .27833558 .040985109 .27833558 .050994874 .27833558 .051986696 .28033448 .056991579 .29634095 .083999637 .3903656 .12399292 .42037965 .1579895 .42037965 .1659851 .42037965 .18299866 .42037965 .18299866 .3883667 .18299866 .36335755 .17298889 .3373413 .1659851 .31834413 .12599182 .21231079 .10798645 .1552887 .10798645 .10827637 .10798645 .019256592 .17098999-.0107421879 .22999573-.0107421879 .2689972-.0107421879 .30299378 .0062561037 .33099366 .03425598 .31799317-.017745972 .30599977-.06674194 .2659912-.11973572 .23999024-.15385437 .20199585-.18309021 .1559906-.18309021 .14199829-.18309021 .09700012-.18005371 .07998657-.14074707 .09599304-.14074707 .10899353-.14074707 .12298584-.1287384 .1329956-.11973572 .14299011-.10673523 .14299011-.08773804 .14299011-.056747438 .115997318-.052734376 .10598755-.052734376 .08299255-.052734376 .049987794-.068740848 .049987794-.11773682 .049987794-.16796875 .09399414-.20507813 .1559906-.20507813 .25898744-.20507813 .3619995-.11373901 .3899994-.00074768069L.48599244 .38136292Z"/>
<path id="font_3_1" d="M.2769928 .6851349 .548996 .56199648 .5609894 .58399966 .27799989 .7441406-.005004883 .58399966 .005996704 .56199648 .2769928 .6851349Z"/>
<path id="font_4_1" d="M.5479889 .23046875C.5649872 .23046875 .58299258 .23046875 .58299258 .25045777 .58299258 .27046205 .5649872 .27046205 .5479889 .27046205H.12399292C.13598633 .40419007 .25099183 .5 .3919983 .5H.5479889C.5649872 .5 .58299258 .5 .58299258 .519989 .58299258 .5399933 .5649872 .5399933 .5479889 .5399933H.3899994C.21899414 .5399933 .08299255 .4101715 .08299255 .25045777 .08299255 .09017944 .21899414-.040008546 .3899994-.040008546H.5479889C.5649872-.040008546 .58299258-.040008546 .58299258-.020004273 .58299258 0 .5649872 0 .5479889 0H.3919983C.25099183 0 .13598633 .096191409 .12399292 .23046875H.5479889Z"/>
<path id="font_1_4" d="M.1329956 .08345032C.18699646 .14138794 .21598816 .16636658 .2519989 .19732666 .2519989 .19833374 .31399537 .25128175 .34999085 .2872467 .44499208 .3803711 .46699525 .42837525 .46699525 .43237306 .46699525 .4423828 .45799256 .4423828 .45599366 .4423828 .44898988 .4423828 .44599916 .44036866 .44099427 .43138124 .41099549 .38337709 .3899994 .3671875 .3659973 .3671875 .34199525 .3671875 .32998658 .38237 .31498719 .3993683 .29599 .42237855 .2789917 .4423828 .24598694 .4423828 .17098999 .4423828 .125 .34918214 .125 .3282013 .125 .3231964 .12799073 .31721498 .13699341 .31721498 .1459961 .31721498 .147995 .3222046 .1499939 .3282013 .16899109 .37434388 .22698975 .37538148 .23498535 .37538148 .2559967 .37538148 .2749939 .36820985 .2979889 .36018373 .33799745 .34518434 .34899903 .34518434 .375 .34518434 .33898927 .30223084 .25498963 .2303009 .23599243 .21430969L.1459961 .13040161C.07798767 .06341553 .042999269 .0062561037 .042999269-.00074768069 .042999269-.0107421879 .052993776-.0107421879 .054992677-.0107421879 .06298828-.0107421879 .06498718-.008743286 .070999149 .002243042 .09399414 .037246705 .12399292 .064453128 .1559906 .064453128 .1789856 .064453128 .18899536 .055252077 .21398926 .026245118 .23098755 .0052490236 .24899292-.0107421879 .27799989-.0107421879 .3769989-.0107421879 .43499757 .1164093 .43499757 .14338684 .43499757 .14837647 .43099977 .15338135 .4229889 .15338135 .4139862 .15338135 .4119873 .14738465 .40899659 .14039612 .38598634 .07543945 .32199098 .056243898 .2889862 .056243898 .2689972 .056243898 .25099183 .06239319 .22999573 .06944275 .19599915 .08244324 .18099976 .08644104 .1599884 .08644104 .1579895 .08644104 .14199829 .08644104 .1329956 .08345032Z"/>
</defs>
<path transform="matrix(1,0,0,-1.00002,1.6460037,80.82836)" d="M0 0 220.94214-43.62709 348.50273 31.94066 127.56056 75.56775Z" fill="#ebedf1"/>
<path transform="matrix(1,0,0,-1.00002,1.6460037,80.82836)" stroke-width=".3985" stroke-linecap="butt" stroke-miterlimit="10" stroke-linejoin="miter" fill="none" stroke="#99a3b8" d="M0 0 220.94214-43.62709 348.50273 31.94066 127.56056 75.56775Z"/>
<path transform="matrix(1,0,0,-1.00002,1.6460037,80.82836)" stroke-width=".3985" stroke-linecap="butt" stroke-miterlimit="10" stroke-linejoin="miter" fill="none" stroke="#000000" d="M232.33515 21.29376"/>
<use data-text="W" xlink:href="#font_1_1" transform="matrix(9.9626,0,0,-9.962799,237.501,62.938005)"/>
<path transform="matrix(1,0,0,-1.00002,1.6460037,80.82836)" stroke-width="1.59404" stroke-linecap="butt" stroke-miterlimit="10" stroke-linejoin="miter" fill="none" stroke="#000000" d="M0 0 69.93343-13.80902"/>
<path transform="matrix(.98102,.19371388,.19371,-.98103967,71.579418,94.637638)" d="M3.78581 0-2.27148 3.02866 0 0-2.27148-3.02866"/>
<use data-text="&#x20d7;" xlink:href="#font_1_5" transform="matrix(9.9626,0,0,-9.962799,70.257,106.60688)"/>
<use data-text="v" xlink:href="#font_1_2" transform="matrix(9.9626,0,0,-9.962799,70.645549,106.60688)"/>
<use data-text="1" xlink:href="#font_2_1" transform="matrix(6.9738,0,0,-6.97394,75.47301,108.100917)"/>
<path transform="matrix(1,0,0,-1.00002,1.6460037,80.82836)" stroke-width="1.59404" stroke-linecap="butt" stroke-miterlimit="10" stroke-linejoin="miter" fill="none" stroke="#000000" d="M0 0 39.26315 23.25978"/>
<path transform="matrix(.86032,-.5096702,-.50966,-.8603372,40.909154,57.568128)" d="M3.78581 0-2.27148 3.02866 0 0-2.27148-3.02866"/>
<use data-text="&#x20d7;" xlink:href="#font_1_5" transform="matrix(9.9626,0,0,-9.962799,47.897005,58.449914)"/>
<use data-text="v" xlink:href="#font_1_2" transform="matrix(9.9626,0,0,-9.962799,48.285547,58.449914)"/>
<use data-text="2" xlink:href="#font_2_2" transform="matrix(6.9738,0,0,-6.97394,53.113008,59.943948)"/>
<path transform="matrix(1,0,0,-1.00002,1.6460037,80.82836)" stroke-width="1.59404" stroke-linecap="butt" stroke-miterlimit="10" stroke-linejoin="miter" fill="none" stroke="#001a4d" d="M0 0 76.28027 71.78546"/>
<path transform="matrix(.7282,-.6853137,-.6853,-.7282146,77.92628,9.041466)" d="M3.78581 0-2.27148 3.02866 0 0-2.27148-3.02866" fill="#001a4d"/>
<use data-text="&#x20d7;" xlink:href="#font_1_5" transform="matrix(9.9626,0,0,-9.962799,84.719,9.036926)" fill="#001a4d"/>
<use data-text="y" xlink:href="#font_1_3" transform="matrix(9.9626,0,0,-9.962799,84.80866,9.036926)" fill="#001a4d"/>
<path transform="matrix(1,0,0,-1.00002,1.6460037,80.82836)" stroke-width="1.59404" stroke-linecap="butt" stroke-miterlimit="10" stroke-linejoin="miter" fill="none" stroke="#990000" d="M0 0 75.26056-5.26686"/>
<path transform="matrix(.99754,.069811407,.06981,-.99755999,76.90654,86.095317)" d="M3.78581 0-2.27148 3.02866 0 0-2.27148-3.02866" fill="#990000"/>
<use data-text="&#xfffd;" xlink:href="#font_3_1" transform="matrix(9.9626,0,0,-9.962799,85.208,88.988529)" fill="#990000"/>
<use data-text="y" xlink:href="#font_1_3" transform="matrix(9.9626,0,0,-9.962799,84.801,88.988529)" fill="#990000"/>
<use data-text="&#x2208;" xlink:href="#font_4_1" transform="matrix(9.9626,0,0,-9.962799,92.811008,88.988529)" fill="#990000"/>
<use data-text="W" xlink:href="#font_1_1" transform="matrix(9.9626,0,0,-9.962799,102.22,88.988529)" fill="#990000"/>
<path transform="matrix(1,0,0,-1.00002,1.6460037,80.82836)" stroke-width=".3985" stroke-linecap="butt" stroke-dasharray="2.98883,2.98883" stroke-miterlimit="10" stroke-linejoin="miter" fill="none" stroke="#7f807f" d="M79.03708 74.3799V-5.53113"/>
<path transform="matrix(1,0,0,-1.00002,1.6460037,80.82836)" stroke-width="1.59404" stroke-linecap="butt" stroke-miterlimit="10" stroke-linejoin="miter" fill="none" stroke="#000000" d="M79.03708-5.53113V70.59407"/>
<path transform="matrix(0,-1.00002,-1,-0,80.68308,10.23288)" d="M3.78581 0-2.27148 3.02866 0 0-2.27148-3.02866"/>
<path transform="matrix(1,0,0,-1.00002,1.6460037,80.82836)" stroke-width=".3985" stroke-linecap="butt" stroke-miterlimit="10" stroke-linejoin="miter" fill="none" stroke="#000000" d="M78.50948 34.87544"/>
<use data-text="z" xlink:href="#font_1_4" transform="matrix(9.9626,0,0,-9.962799,83.675,48.096708)"/>
</svg>
