<svg xmlns="http://www.w3.org/2000/svg" xmlns:xlink="http://www.w3.org/1999/xlink" xmlns:inkscape="http://www.inkscape.org/namespaces/inkscape" version="1.1" width="169" height="136" viewBox="0 0 169 136">
<defs>
<path id="font_1_95" d="M.7519989 .088897708C.7519989 .09489441 .7519989 .10687256 .73799136 .10687256 .72499087 .10687256 .72499087 .09788513 .723999 .08988953 .71899417 .026992798 .6879883 .0029907227 .6569977 .0029907227 .625 .0029907227 .6139984 .022994996 .60598757 .039978029 .5970001 .061935426 .58799746 .12983704 .58200076 .17475891 .57398989 .23666382 .5649872 .3035431 .45399476 .33850099 .548996 .36550904 .6269989 .42453004 .6269989 .5025635 .6269989 .601593 .5059967 .6826172 .35899354 .6826172H.039993287V.6516113H.06298828C.13999939 .6516113 .14199829 .64060977 .14199829 .6035919V.07891846C.14199829 .04197693 .13999939 .0309906 .06298828 .0309906H.039993287V0C.08699036 .0029907227 .13699341 .0029907227 .18499756 .0029907227 .23298645 .0029907227 .2829895 .0029907227 .33099366 0V.0309906H.30799867C.23098755 .0309906 .22898865 .04197693 .22898865 .07891846V.32850648H.34899903C.42099 .32850648 .45298768 .29057313 .45700074 .28657533 .4869995 .24963379 .4869995 .23466492 .4869995 .16377259 .4869995 .09687805 .4869995 .052963258 .5349884 .01499939 .58200076-.022003174 .6419983-.022003174 .6529999-.022003174 .7369995-.022003174 .7519989 .064941409 .7519989 .088897708M.5249939 .5025635C.5249939 .41653443 .48098756 .35351563 .34498597 .35351563H.22898865V.6105957C.22898865 .63661196 .23098755 .6456146 .25 .6496124 .25898744 .6516113 .29100038 .6516113 .31199647 .6516113 .397995 .6516113 .5249939 .6516113 .5249939 .5025635Z"/>
<path id="font_1_81" d="M.48399354 .21324158C.48399354 .34423829 .37998963 .4482422 .25698854 .4482422 .12998963 .4482422 .0289917 .3412323 .0289917 .21324158 .0289917 .08824158 .1329956-.0107421879 .2559967-.0107421879 .3829956-.0107421879 .48399354 .09024048 .48399354 .21324158M.397995 .22224427C.397995 .1852417 .397995 .12724304 .37298585 .08325195 .34498597 .037246705 .29899598 .01725769 .25698854 .01725769 .20698548 .01725769 .16499329 .042251588 .14199829 .08125305 .115997318 .12324524 .114990238 .17623902 .114990238 .22224427 .114990238 .25924684 .114990238 .3162384 .13999939 .35723878 .16999817 .40823365 .21998596 .42323304 .2559967 .42323304 .31298829 .42323304 .35398866 .39123536 .37399293 .35723878 .39698792 .31523133 .397995 .26423646 .397995 .22224427Z"/>
<path id="font_1_114" d="M.72099307 .3996582V.43066407C.68099978 .42765809 .67900088 .42765809 .6459961 .42765809 .60798647 .42765809 .59399417 .42765809 .55400088 .43066407V.3996582C.5970001 .39865113 .61099246 .3717041 .61099246 .35173036 .61099246 .34173585 .60899356 .3357544 .60598757 .32876588L.5139923 .07911682 .41299439 .35272218C.4079895 .3657074 .4079895 .36869813 .4079895 .3717041 .4079895 .3976593 .43899537 .3996582 .46499635 .3996582V.43066407C.4189911 .42765809 .37799073 .42765809 .3619995 .42765809 .33099366 .42765809 .3019867 .42765809 .269989 .43066407V.3996582C.3019867 .3996582 .32199098 .39865113 .33299256 .38467408 .34199525 .37368775 .35499574 .3337555 .35499574 .3307495L.34999085 .31677247 .2679901 .09210205 .17298889 .35173036C.16699219 .36669923 .16699219 .36869813 .16699219 .37269593 .16699219 .3996582 .20599365 .3996582 .22499085 .3996582V.43066407L.115997318 .42765809C.08299255 .42765809 .053985597 .42765809 .019989014 .43066407V.3996582C.067993167 .3996582 .08099365 .3976593 .09298706 .3637085L.22200012 .01121521C.22698975-.00076293948 .22999573-.0107421879 .24499512-.0107421879 .2599945-.0107421879 .2639923 .00022888184 .2679901 .010223389L.36999513 .28981019 .47299195 .010223389C.47698976 .00022888184 .48098756-.0107421879 .49598695-.0107421879 .5109863-.0107421879 .5139923-.00076293948 .5179901 .009216309L.6369934 .3337555C.6589966 .39466859 .69999697 .39865113 .72099307 .3996582Z"/>
<path id="font_2_1" d="M.18199158 .116867069C.1329956 .036987306 .08898926 .033981325 .04899597 .0309906 .041992189 .02999878 .036987306 .021987915 .036987306 .0129852299 .036987306 .0069885256 .040985109 0 .050994874 0 .069992069 0 .116989139 .0029907227 .13598633 .0029907227 .1579895 .0029907227 .21199036 0 .23399353 0 .23999024 0 .25299073 0 .25299073 .017990113 .25299073 .02999878 .24099732 .0309906 .23799134 .0309906 .22898865 .03199768 .19099427 .033981325 .19099427 .063949588 .19099427 .077926639 .20199585 .09689331 .20498657 .101882938L.28399659 .23068238H.54499819C.5479889 .2077179 .5509949 .17378235 .55400088 .14881897 .55799868 .10987854 .56399539 .06593323 .56399539 .062942508 .56399539 .047973634 .5499878 .0309906 .49198915 .0309906 .48199464 .0309906 .46899415 .0309906 .46899415 .0129852299 .46899415 .0019989014 .47698976 0 .48399354 0 .5029907 0 .5269928 .0019989014 .5469971 .0019989014 .5669861 .0019989014 .59098818 .0029907227 .6069946 .0029907227 .6399994 .0029907227 .6419983 .0029907227 .66600039 .0019989014 .6819916 .0009918213 .7049866 0 .72099307 0 .72698977 0 .73999026 0 .73999026 .017990113 .73999026 .0309906 .72898867 .0309906 .71699526 .0309906 .6569977 .0309906 .6559906 .037979127 .6529999 .06694031L.58299258 .68881228C.58099368 .7108154 .5799866 .7158203 .5629883 .7158203 .548996 .7158203 .54299929 .7088165 .5349884 .69581606L.18199158 .116867069M.30299378 .26168824 .5049896 .5917816 .5419922 .26168824H.30299378Z"/>
<path id="font_1_76" d="M.7319946 .6516113V.6826172C.6779938 .680603 .6629944 .6796112 .61499026 .6796112 .56599429 .6796112 .5529938 .680603 .49699403 .6826172V.6516113C.598999 .6516113 .598999 .6036377 .598999 .5766449V.1499176L.23599243 .6706085C.22799683 .6826172 .22499085 .6826172 .20599365 .6826172H.037994386V.6516113H.06599426C.11399841 .6516113 .13999939 .64460757 .13999939 .64460757V.10594177C.13999939 .07896423 .13999939 .0309906 .037994386 .0309906V0C.09298706 .0019989014 .10699463 .0029907227 .1559906 .0029907227 .20399475 .0029907227 .21899414 .0019989014 .272995 0V.0309906C.17098999 .0309906 .17098999 .07896423 .17098999 .10594177V.6216278L.59599307 .011993408C.60398867 0 .60899356 0 .6139984 0 .6299896 0 .6299896 .0079956059 .6299896 .026992798V.5766449C.6299896 .6036377 .6299896 .6516113 .7319946 .6516113Z"/>
<path id="font_1_109" d="M.5469971 .00024414063V.03125C.47898866 .03125 .46998597 .038253786 .46998597 .087265018V.4423828L.31900025 .43138124V.40037538C.3869934 .40037538 .3959961 .39337159 .3959961 .34436036V.16729737C.3959961 .07826233 .34599305 .014251709 .27398683 .014251709 .19099427 .014251709 .18598938 .057266237 .18598938 .11128235V.4423828L.034988405 .43138124V.40037538C.11199951 .40037538 .11199951 .39736939 .11199951 .3083496V.15829468C.11199951 .09327698 .11199951 .051254274 .1579895 .01625061 .18699646-.003753662 .22799683-.0107421879 .2679901-.0107421879 .31999208-.0107421879 .36898805 .012252808 .397995 .072265628H.39898683V-.0107421879L.5469971 .00024414063Z"/>
<path id="font_1_72" d="M.26098634 0V.0309906C.19499207 .0309906 .18399048 .0309906 .18399048 .07701111V.69433596L.035995485 .6826172V.6516113C.10398865 .6516113 .11299133 .64460757 .11299133 .5956421V.07696533C.11299133 .0309906 .101989749 .0309906 .035995485 .0309906V0C.08299255 .0019989014 .101989749 .0029907227 .147995 .0029907227 .19499207 .0029907227 .21199036 .0019989014 .26098634 0Z"/>
<path id="font_1_42" d="M.6839905 .23170471C.6839905 .24171448 .6839905 .25073243 .66999819 .25073243 .6569977 .25073243 .6569977 .24372864 .6559906 .2347107 .647995 .082595828 .5279999 .008529663 .4249878 .008529663 .33999635 .008529663 .15899658 .061569215 .15899658 .34179688 .15899658 .6210327 .34098817 .67407229 .42399598 .67407229 .522995 .67407229 .6279907 .5990143 .6519928 .4368744 .6539917 .4238739 .6549988 .41886903 .66799929 .41886903 .6839905 .41886903 .6839905 .4238739 .6839905 .44488526V.67907717C.6839905 .69607546 .6839905 .7050781 .6719971 .7050781 .6649933 .7050781 .6619873 .70207217 .6559906 .69306948L.6049957 .61802676C.57299807 .64904788 .5159912 .7050781 .4149933 .7050781 .22099304 .7050781 .056991579 .5439606 .056991579 .34179688 .056991579 .13563538 .22299195-.022460938 .4149933-.022460938 .58099368-.022460938 .6839905 .11462402 .6839905 .23170471Z"/>
<path id="font_3_1" d="M.519989 .6016388C.5279999 .63360598 .5299988 .63560488 .57099917 .63560488H.6629944C.769989 .63560488 .7849884 .6046295 .7849884 .5466614 .7849884 .5326843 .7829895 .5056915 .7789917 .4747162 .7779999 .4717102 .776001 .46072389 .776001 .4577179 .776001 .44773866 .7839966 .44174195 .79499819 .44174195 .8109894 .44174195 .8129883 .4517212 .8149872 .46672059L.84199526 .6586151C.84199526 .6756134 .83099368 .6756134 .8109894 .6756134H.16099549C.1349945 .6756134 .1329956 .6756134 .12599182 .65460208L.06098938 .4727173C.056991579 .46072389 .056991579 .4577179 .056991579 .45672608 .056991579 .4537201 .057998659 .44174195 .07499695 .44174195 .08898926 .44174195 .08999634 .44473268 .09899902 .47071839 .14399719 .5926361 .1749878 .63560488 .3039856 .63560488H.394989C.4139862 .63560488 .41600038 .63560488 .42799378 .63261416L.29299928 .08596802C.28599549 .0579834 .2809906 .048980714 .25299073 .04498291 .22499085 .039993287 .16699219 .039993287 .1659851 .039993287 .13999939 .039993287 .13798523 .039993287 .13398743 .036987306 .1289978 .032989503 .125 .018997193 .125 .01399231 .125 .0129852299 .1269989 0 .14399719 0 .17098999 0 .20098877 .0029907227 .22799683 .0029907227 .2679901 .0029907227 .2939911 .0039978029 .32099916 .0039978029 .35099793 .0039978029 .3809967 .0029907227 .41099549 .0029907227 .43998719 .0029907227 .47200013 0 .5009918 0 .5089874 0 .5159912 0 .519989 .0069885256 .5219879 .009994507 .526001 .021987915 .526001 .025985718 .522995 .039993287 .5159912 .039993287 .4850006 .039993287 .46299745 .039993287 .44198609 .040985109 .41999818 .041992189 .39698792 .04399109 .3849945 .04498291 .3849945 .0599823L.519989 .6016388Z"/>
<path id="font_4_1" d="M.2679901 .31362916H.3039856L.45399476 .08192444C.46398927 .06594849 .48799134 .026992798 .49899293 .011993408 .5059967 0 .5089874 0 .5319977 0H.66999819C.6879883 0 .7029877 0 .7029877 .017990113 .7029877 .025985718 .69699099 .032989503 .6879883 .034988405 .651001 .04298401 .60198977 .10890198 .5779877 .14085388 .57099917 .15083313 .5209961 .2167511 .45399476 .32463075 .54299929 .34062196 .6289978 .37861634 .6289978 .4975891 .6289978 .63656619 .48199464 .6845703 .3639984 .6845703H.049987794C.03199768 .6845703 .015991211 .6845703 .015991211 .66656497 .015991211 .64956668 .034988405 .64956668 .042999269 .64956668 .099990848 .64956668 .10499573 .64256289 .10499573 .5925751V.091918949C.10499573 .04197693 .099990848 .034988405 .042999269 .034988405 .034988405 .034988405 .015991211 .034988405 .015991211 .017990113 .015991211 0 .03199768 0 .049987794 0H.32398988C.34199525 0 .35699464 0 .35699464 .017990113 .35699464 .034988405 .33999635 .034988405 .32899476 .034988405 .27198792 .034988405 .2679901 .04298401 .2679901 .091918949V.31362916M.46099855 .36262513C.4889984 .39961244 .49198915 .4526062 .49198915 .4965973 .49198915 .5445862 .48599244 .59757998 .45399476 .63856509 .49499513 .6295624 .59399417 .5985718 .59399417 .4975891 .59399417 .43260194 .56399539 .3816223 .46099855 .36262513M.2679901 .59558108C.2679901 .61657717 .2679901 .64956668 .32998658 .64956668 .4149933 .64956668 .45700074 .614563 .45700074 .4965973 .45700074 .36761476 .42599488 .3486328 .2679901 .3486328V.59558108M.13198853 .034988405C.13999939 .052963258 .13999939 .08093262 .13999939 .089920047V.594574C.13999939 .6045685 .13999939 .6315613 .13198853 .64956668H.24598694C.23298645 .6335602 .23298645 .61357119 .23298645 .5985718V.089920047C.23298645 .079940799 .23298645 .052963258 .24099732 .034988405H.13198853M.34498597 .31362916C.35198976 .31462098 .35598756 .31562806 .3639984 .31562806 .3789978 .31562806 .40098573 .31762696 .41600038 .31962586 .43099977 .2956543 .5389862 .117889408 .621994 .034988405H.5249939L.34498597 .31362916Z"/>
<path id="font_5_2" d="M.08799744 .059265138C.084991458 .044265748 .07899475 .021255494 .07899475 .01625061 .07899475-.0017547608 .09298706-.0107421879 .10798645-.0107421879 .11999512-.0107421879 .13798523-.002746582 .14498902 .01725769 .1459961 .019256592 .1579895 .06626892 .1639862 .091278079L.18598938 .18130493C.19198609 .2033081 .19799805 .22531128 .20298767 .24832154 .20698548 .26531983 .21499634 .29434205 .21598816 .29833985 .23098755 .3293457 .28399659 .42037965 .3789978 .42037965 .42399598 .42037965 .43299867 .38336183 .43299867 .35035707 .43299867 .28833009 .38398744 .16029358 .36799623 .11727905 .35899354 .0942688 .35798646 .08227539 .35798646 .0712738 .35798646 .024261475 .3929901-.0107421879 .43998719-.0107421879 .5339966-.0107421879 .57099917 .13528443 .57099917 .14329529 .57099917 .1532898 .56199648 .1532898 .5589905 .1532898 .548996 .1532898 .548996 .15029907 .5439911 .13528443 .5239868 .06726074 .4909973 .011245728 .44198609 .011245728 .4249878 .011245728 .41799928 .021255494 .41799928 .044265748 .41799928 .0692749 .4269867 .09327698 .43598939 .11528015 .45498658 .16830445 .49699403 .27833558 .49699403 .3353424 .49699403 .40237428 .45399476 .4423828 .38198854 .4423828 .2919922 .4423828 .24299622 .37835694 .22599793 .35534669 .22099304 .41137696 .17999268 .4423828 .13398743 .4423828 .08799744 .4423828 .068984989 .4033661 .05899048 .38536073 .042999269 .35134889 .0289917 .29232789 .0289917 .28833009 .0289917 .27833558 .038986207 .27833558 .040985109 .27833558 .050994874 .27833558 .051986696 .2793274 .057998659 .30133058 .07499695 .37236024 .09498596 .42037965 .1309967 .42037965 .15098572 .42037965 .1619873 .4073639 .1619873 .37435914 .1619873 .35334779 .15899658 .3423462 .1459961 .29032899L.08799744 .059265138Z"/>
<path id="font_5_1" d="M.08799744 .059265138C.084991458 .044265748 .07899475 .021255494 .07899475 .01625061 .07899475-.0017547608 .09298706-.0107421879 .10798645-.0107421879 .11999512-.0107421879 .13798523-.002746582 .14498902 .01725769 .1459961 .019256592 .1579895 .06626892 .1639862 .091278079L.18598938 .18130493C.19198609 .2033081 .19799805 .22531128 .20298767 .24832154 .20698548 .26531983 .21499634 .29434205 .21598816 .29833985 .23098755 .3293457 .28399659 .42037965 .3789978 .42037965 .42399598 .42037965 .43299867 .38336183 .43299867 .35035707 .43299867 .3253479 .42599488 .29733277 .41799928 .26733399L.3899994 .1512909 .36999513 .07527161C.3659973 .055267335 .35699464 .021255494 .35699464 .01625061 .35699464-.0017547608 .37098695-.0107421879 .38598634-.0107421879 .4169922-.0107421879 .4229889 .014251709 .43099977 .04626465 .44499208 .10227966 .48199464 .24832154 .4909973 .28733827 .49398805 .30033876 .5469971 .42037965 .6559906 .42037965 .69898989 .42037965 .70999148 .3863678 .70999148 .35035707 .70999148 .29333497 .66799929 .17930603 .647995 .12628174 .6389923 .10227966 .6349945 .091278079 .6349945 .0712738 .6349945 .024261475 .66999819-.0107421879 .71699526-.0107421879 .8109894-.0107421879 .84799197 .13528443 .84799197 .14329529 .84799197 .1532898 .83898928 .1532898 .83599856 .1532898 .82598879 .1532898 .82598879 .15029907 .82099917 .13528443 .80599978 .08227539 .7739868 .011245728 .71899417 .011245728 .70199587 .011245728 .69499209 .021255494 .69499209 .044265748 .69499209 .0692749 .70399478 .09327698 .71299746 .11528015 .7319946 .16729737 .7739868 .27833558 .7739868 .3353424 .7739868 .4003601 .73399356 .4423828 .6589966 .4423828 .58399966 .4423828 .5329895 .3983612 .49598695 .34535218 .49499513 .35835267 .49198915 .3923645 .46398927 .41636659 .43899537 .43737794 .40699769 .4423828 .38198854 .4423828 .2919922 .4423828 .24299622 .37835694 .22599793 .35534669 .22099304 .41236878 .1789856 .4423828 .13398743 .4423828 .08799744 .4423828 .068984989 .4033661 .05999756 .38536073 .041992189 .35035707 .0289917 .29133607 .0289917 .28833009 .0289917 .27833558 .038986207 .27833558 .040985109 .27833558 .050994874 .27833558 .051986696 .2793274 .057998659 .30133058 .07499695 .37236024 .09498596 .42037965 .1309967 .42037965 .14698792 .42037965 .1619873 .41236878 .1619873 .37435914 .1619873 .35334779 .15899658 .3423462 .1459961 .29032899L.08799744 .059265138Z"/>
</defs>
<path transform="matrix(1.00008,0,0,-1.00008,33.734506,74.088649)" d="M0 0-24.09494 24.09494 24.09494 72.28487 48.18991 48.18991Z" fill="#d9dde4"/>
<path transform="matrix(1.00008,0,0,-1.00008,33.734506,74.088649)" stroke-width=".3985" stroke-linecap="butt" stroke-miterlimit="10" stroke-linejoin="miter" fill="none" stroke="#808ca6" d="M0 0-24.09494 24.09494 24.09494 72.28487 48.18991 48.18991Z"/>
<path transform="matrix(1.00008,0,0,-1.00008,33.734506,74.088649)" d="M0 0 24.09494-24.09494 0-48.18991-24.09494-24.09494Z" fill="#d9dde4"/>
<path transform="matrix(1.00008,0,0,-1.00008,33.734506,74.088649)" stroke-width=".3985" stroke-linecap="butt" stroke-miterlimit="10" stroke-linejoin="miter" fill="none" stroke="#808ca6" d="M0 0 24.09494-24.09494 0-48.18991-24.09494-24.09494Z"/>
<path transform="matrix(1.00008,0,0,-1.00008,33.734506,74.088649)" stroke-width=".3985" stroke-linecap="butt" stroke-miterlimit="10" stroke-linejoin="miter" fill="none" stroke="#000000" d="M9.63782 40.96135"/>
<use data-text="R" xlink:href="#font_1_95" transform="matrix(8.967117,0,0,-8.967117,31.02629,42.77214)"/>
<use data-text="o" xlink:href="#font_1_81" transform="matrix(8.967117,0,0,-8.967117,37.805429,42.77214)"/>
<use data-text="w" xlink:href="#font_1_114" transform="matrix(8.967117,0,0,-8.967117,42.16346,42.77214)"/>
<use data-text="A" xlink:href="#font_2_1" transform="matrix(8.967117,0,0,-8.967117,48.808725,42.77214)"/>
<path transform="matrix(1.00008,0,0,-1.00008,33.734506,74.088649)" stroke-width=".3985" stroke-linecap="butt" stroke-miterlimit="10" stroke-linejoin="miter" fill="none" stroke="#000000" d="M0-16.86638"/>
<use data-text="N" xlink:href="#font_1_76" transform="matrix(8.967117,0,0,-8.967117,21.69754,100.69977)"/>
<use data-text="u" xlink:href="#font_1_109" transform="matrix(8.967117,0,0,-8.967117,28.611184,100.69977)"/>
<use data-text="l" xlink:href="#font_1_72" transform="matrix(8.967117,0,0,-8.967117,33.731409,100.69977)"/>
<use data-text="l" xlink:href="#font_1_72" transform="matrix(8.967117,0,0,-8.967117,36.296014,100.69977)"/>
<use data-text="A" xlink:href="#font_2_1" transform="matrix(8.967117,0,0,-8.967117,38.86091,100.69977)"/>
<path transform="matrix(1.00008,0,0,-1.00008,33.734506,74.088649)" d="M96.37984 0 60.23738 36.14243 84.33235 60.23738 120.4748 24.09494Z" fill="#d9e4d9"/>
<path transform="matrix(1.00008,0,0,-1.00008,33.734506,74.088649)" stroke-width=".3985" stroke-linecap="butt" stroke-miterlimit="10" stroke-linejoin="miter" fill="none" stroke="#80a680" d="M96.37984 0 60.23738 36.14243 84.33235 60.23738 120.4748 24.09494Z"/>
<path transform="matrix(1.00008,0,0,-1.00008,33.734506,74.088649)" d="M96.37984 0 132.52227-36.14243 108.42729-60.23738 72.28487-24.09494Z" fill="#d9e4d9"/>
<path transform="matrix(1.00008,0,0,-1.00008,33.734506,74.088649)" stroke-width=".3985" stroke-linecap="butt" stroke-miterlimit="10" stroke-linejoin="miter" fill="none" stroke="#80a680" d="M96.37984 0 132.52227-36.14243 108.42729-60.23738 72.28487-24.09494Z"/>
<path transform="matrix(1.00008,0,0,-1.00008,33.734506,74.088649)" stroke-width=".3985" stroke-linecap="butt" stroke-miterlimit="10" stroke-linejoin="miter" fill="none" stroke="#000000" d="M93.97017 36.14243"/>
<use data-text="C" xlink:href="#font_1_42" transform="matrix(8.967117,0,0,-8.967117,117.34319,47.78554)"/>
<use data-text="o" xlink:href="#font_1_81" transform="matrix(8.967117,0,0,-8.967117,123.996799,47.78554)"/>
<use data-text="l" xlink:href="#font_1_72" transform="matrix(8.967117,0,0,-8.967117,128.60588,47.78554)"/>
<use data-text="A" xlink:href="#font_2_1" transform="matrix(8.967117,0,0,-8.967117,131.1713,47.78554)"/>
<path transform="matrix(1.00008,0,0,-1.00008,33.734506,74.088649)" stroke-width=".3985" stroke-linecap="butt" stroke-miterlimit="10" stroke-linejoin="miter" fill="none" stroke="#000000" d="M101.19875-19.27602"/>
<use data-text="N" xlink:href="#font_1_76" transform="matrix(8.967117,0,0,-8.967117,119.985408,104.7811)"/>
<use data-text="u" xlink:href="#font_1_109" transform="matrix(8.967117,0,0,-8.967117,126.89905,104.7811)"/>
<use data-text="l" xlink:href="#font_1_72" transform="matrix(8.967117,0,0,-8.967117,132.01927,104.7811)"/>
<use data-text="l" xlink:href="#font_1_72" transform="matrix(8.967117,0,0,-8.967117,134.58388,104.7811)"/>
<use data-text="A" xlink:href="#font_2_1" transform="matrix(8.967117,0,0,-8.967117,137.14878,104.7811)"/>
<use data-text="T" xlink:href="#font_3_1" transform="matrix(5.9780786,0,0,-5.9780786,144.05934,100.971797)"/>
<path transform="matrix(1.00008,0,0,-1.00008,33.734506,74.088649)" stroke-width=".3985" stroke-linecap="butt" stroke-miterlimit="10" stroke-linejoin="miter" fill="none" stroke="#000000" d="M-24.09494 12.04745"/>
<use data-text="R" xlink:href="#font_4_1" transform="matrix(14.347347,0,0,-14.347347,1.2169037,75.443759)" fill="#001a4d"/>
<use data-text="n" xlink:href="#font_5_2" transform="matrix(9.963397,0,0,-9.963397,11.579735,70.237339)" fill="#001a4d"/>
<path transform="matrix(1.00008,0,0,-1.00008,33.734506,74.088649)" stroke-width=".3985" stroke-linecap="butt" stroke-miterlimit="10" stroke-linejoin="miter" fill="none" stroke="#000000" d="M125.29372 12.04745"/>
<use data-text="R" xlink:href="#font_4_1" transform="matrix(14.347347,0,0,-14.347347,149.23374,75.443759)" fill="#004d00"/>
<use data-text="m" xlink:href="#font_5_1" transform="matrix(9.963397,0,0,-9.963397,159.59658,70.237339)" fill="#004d00"/>
</svg>
