<svg xmlns="http://www.w3.org/2000/svg" id="diagram" width="320" height="320">
  <defs>
    <clipPath id="clipPath-0">
      <rect x="10.0" y="10.0" width="300.0" height="300.0"/>
    </clipPath>
    <clipPath id="clipPath-1">
      <rect x="10.0" y="10.0" width="300.0" height="300.0"/>
    </clipPath>
    <marker id="arrow-head-end-2_None_24_60-black" markerWidth="9.0" markerHeight="8.0" markerUnits="userSpaceOnUse" orient="auto-start-reverse" refX="6.5" refY="4.0">
      <path d="M 9.0 4.0L 0.0 8.0L 1.7 5.0L 1.7 3.0L 0.0 0.0Z" fill="black" stroke="none"/>
    </marker>
    <marker id="arrow-head-end-2_None_24_60-black-outline" markerWidth="13.0" markerHeight="12.0" markerUnits="userSpaceOnUse" orient="auto-start-reverse" refX="8.5" refY="6.0">
      <path d="M 11.8 7.8 L 2.8 11.8 A 2 2 0 0 1 0.0 10.0 L 0.0 2.0 A 2 2 0 0 1 2.8 0.2 L 11.8 4.2 A 2 2 0 0 1 11.8 7.8 Z" fill="white" stroke="none"/>
    </marker>
  </defs>
  <g id="g-0">
    <g id="g-1">
      <line id="edge-4-1" x1="74.3" y1="220.0" x2="74.3" y2="128.0" stroke="black" stroke-width="2" stroke-dasharray="none" fill="none" marker-end="url(#arrow-head-end-2_None_24_60-black)"/>
      <path id="edge-1-2" d="M 74.3 100.0 Q 95.7 107.5 117.1 107.5 Q 122.5 107.5 127.9 107.0 Q 129.2 106.9 130.5 106.8 Q 131.2 106.7 131.9 106.6 Q 132.2 106.6 132.5 106.5" stroke="black" stroke-width="2" stroke-dasharray="none" fill="none" clip-path="url(#clipPath-1)" marker-end="url(#arrow-head-end-2_None_24_60-black)"/>
      <path id="edge-2-1" d="M 160.0 100.0 Q 138.6 92.5 117.1 92.5 Q 111.8 92.5 106.4 93.0 Q 105.1 93.1 103.8 93.2 Q 103.1 93.3 102.4 93.4 Q 102.1 93.4 101.7 93.5" stroke="black" stroke-width="2" stroke-dasharray="none" fill="none" clip-path="url(#clipPath-1)" marker-end="url(#arrow-head-end-2_None_24_60-black)"/>
      <path id="edge-2-4" d="M 160.0 100.0 Q 132.5 125.6 111.0 155.6 Q 100.3 170.6 91.1 186.7 Q 88.8 190.8 86.6 194.8" stroke="black" stroke-width="2" stroke-dasharray="none" fill="none" clip-path="url(#clipPath-1)" marker-end="url(#arrow-head-end-2_None_24_60-black)"/>
      <path id="edge-4-2" d="M 74.3 220.0 Q 101.8 194.4 123.2 164.4 Q 134.0 149.4 143.1 133.3 Q 145.4 129.2 147.6 125.2" stroke="black" stroke-width="2" stroke-dasharray="none" fill="none" clip-path="url(#clipPath-1)" marker-end="url(#arrow-head-end-2_None_24_60-black)"/>
      <line id="edge-2-3" x1="160.0" y1="100.0" x2="217.7" y2="100.0" stroke="black" stroke-width="2" stroke-dasharray="none" fill="none" marker-end="url(#arrow-head-end-2_None_24_60-black)"/>
      <line id="edge-3-5" x1="245.7" y1="100.0" x2="245.7" y2="192.0" stroke="black" stroke-width="2" stroke-dasharray="none" fill="none" marker-end="url(#arrow-head-end-2_None_24_60-black)"/>
    </g>
    <g id="g-2">
      <circle id="node-1" cx="74.3" cy="100.0" r="25" stroke="black" stroke-width="1" fill="white"/>
      <g id="1" transform="translate(74.3,100.0) translate(-4.8,-5.1)">
        <g id="g-3">
          <text font-family="sans" font-size="14" x="0.0" y="10.2">V</text>
        </g>
      </g>
      <circle id="node-2" cx="160.0" cy="100.0" r="25" stroke="black" stroke-width="1" fill="white"/>
      <g id="2" transform="translate(160.0,100.0) translate(-6.9,-5.1)">
        <g id="g-4">
          <text font-family="sans" font-size="14" x="0.0" y="10.2">W</text>
        </g>
      </g>
      <circle id="node-3" cx="245.7" cy="100.0" r="25" stroke="black" stroke-width="1" fill="white"/>
      <g id="3" transform="translate(245.7,100.0) translate(-4.3,-5.1)">
        <g id="g-5">
          <text font-family="sans" font-size="14" x="0.0" y="10.2">Y</text>
        </g>
      </g>
      <circle id="node-4" cx="74.3" cy="220.0" r="25" stroke="black" stroke-width="1" fill="white"/>
      <g id="4" transform="translate(74.3,220.0) translate(-4.8,-5.1)">
        <g id="g-6">
          <text font-family="sans" font-size="14" x="0.0" y="10.2">X</text>
        </g>
      </g>
      <circle id="node-5" cx="245.7" cy="220.0" r="25" stroke="black" stroke-width="1" fill="white"/>
      <g id="5" transform="translate(245.7,220.0) translate(-4.8,-5.1)">
        <g id="g-7">
          <text font-family="sans" font-size="14" x="0.0" y="10.2">Z</text>
        </g>
      </g>
    </g>
  </g>
</svg>
